<?xml version="1.0" standalone="no"?>
<!DOCTYPE svg PUBLIC "-//W3C//DTD SVG 20010904//EN"
 "http://www.w3.org/TR/2001/REC-SVG-20010904/DTD/svg10.dtd">
<svg version="1.0" xmlns="http://www.w3.org/2000/svg"
 width="3000.000000pt" height="3000.000000pt" viewBox="0 0 3000.000000 3000.000000"
 preserveAspectRatio="xMidYMid meet">
<metadata>
Created by potrace 1.14, written by Peter Selinger 2001-2017
</metadata>
<g transform="translate(0.000000,3000.000000) scale(0.100000,-0.100000)"
fill="#000000" stroke="none">
<path d="M0 15000 l0 -12650 15000 0 15000 0 0 12650 0 12650 -15000 0 -15000
0 0 -12650z m10456 6615 c239 -239 378 -388 578 -620 606 -705 1135 -1478
1595 -2332 83 -153 105 -207 76 -183 -12 10 -15 10 -15 0 0 -8 -3 -10 -7 -7
-3 4 -13 1 -21 -6 -13 -10 -14 -9 -8 1 7 11 4 12 -11 4 -21 -11 -221 -53 -266
-55 -27 -2 -31 5 -103 167 -553 1247 -1306 2416 -2135 3311 -41 44 -83 91 -94
105 -42 52 200 -175 411 -385z m1966 -3415 c600 -41 854 -78 1413 -207 1048
-242 2149 -609 2860 -952 790 -382 1140 -736 1086 -1100 -12 -76 -51 -175 -88
-220 l-20 -24 -79 45 c-268 154 -666 350 -960 473 -88 37 -238 104 -334 150
-728 345 -1737 670 -2720 874 -135 28 -274 58 -310 67 -177 44 -248 55 -670
101 -237 26 -835 26 -998 0 -162 -26 -329 -70 -425 -112 -45 -20 -130 -56
-188 -80 -419 -171 -746 -433 -970 -779 l-58 -88 -8 38 c-4 22 -8 149 -8 284
0 220 2 256 23 349 119 532 479 877 1102 1056 373 107 894 155 1352 125z
m1056 -1502 c248 -742 406 -1431 481 -2103 22 -192 46 -644 37 -681 -4 -13 -7
-56 -8 -96 -1 -40 -4 -63 -6 -50 -2 12 -7 22 -12 22 -5 0 -7 7 -4 15 4 8 1 15
-5 15 -12 0 -39 20 -86 65 -17 17 -53 48 -79 70 -27 22 -62 54 -80 70 -17 17
-51 46 -76 66 -25 20 -69 60 -99 88 -30 28 -56 51 -58 51 -3 0 -22 17 -44 38
-22 20 -47 44 -57 52 -10 8 -35 30 -55 48 -21 18 -42 30 -47 27 -5 -3 -12 0
-16 6 -4 8 -3 9 4 5 7 -4 12 -3 12 3 0 5 -4 12 -8 15 -5 3 -12 83 -16 178 -28
702 -158 1519 -355 2222 -17 61 -29 111 -28 112 1 1 74 14 162 28 143 23 233
39 289 51 10 3 21 7 25 10 12 13 31 -36 129 -327z m1895 -475 c-3 -9 0 -11 10
-8 8 4 33 -10 59 -32 76 -64 88 -73 96 -73 5 0 21 -13 37 -30 16 -16 34 -30
39 -30 6 0 36 -23 66 -50 30 -27 61 -50 68 -50 6 0 12 -4 12 -8 0 -4 12 -15
28 -24 15 -9 37 -25 49 -35 11 -10 31 -25 43 -33 21 -15 186 -139 303 -229 31
-24 54 -48 50 -54 -3 -6 -1 -7 6 -3 7 5 33 -8 61 -30 28 -21 50 -39 50 -40 0
-1 -107 0 -237 3 -334 8 -600 -15 -745 -63 -27 -8 -48 -19 -48 -23 0 -17 132
-161 231 -253 269 -249 547 -460 1394 -1055 496 -348 626 -436 1734 -1175
1078 -719 1276 -853 1661 -1121 1428 -996 2368 -1809 2751 -2379 234 -347 274
-647 120 -884 -40 -63 -138 -163 -209 -215 -29 -21 -15 -3 45 58 49 48 103
113 121 144 189 322 49 674 -451 1138 -509 471 -1233 982 -2279 1607 -538 321
-1036 603 -2163 1224 -1437 791 -1889 1054 -2375 1380 -390 262 -666 484 -915
734 -194 194 -307 339 -388 494 -76 146 -107 257 -107 381 0 136 25 220 97
329 123 186 361 330 656 397 38 8 73 13 77 10 5 -3 11 -1 15 4 9 15 44 9 38
-6z m-4525 -240 c-1 -5 3 -18 10 -30 7 -13 9 -23 5 -23 -4 0 -3 -4 2 -8 6 -4
26 -43 44 -87 112 -262 288 -597 459 -875 205 -334 517 -792 730 -1070 53 -69
135 -177 184 -241 431 -569 841 -915 1256 -1063 l94 -33 -70 -64 c-122 -112
-255 -175 -422 -200 -295 -43 -592 66 -939 345 -587 471 -1282 1428 -1802
2480 -168 340 -329 728 -331 799 -1 15 -4 27 -8 27 -4 0 -7 7 -7 16 0 15 2 15
12 1 9 -13 45 -15 253 -14 133 1 242 5 242 9 0 11 242 -3 256 -13 7 -6 17 -3
25 8 13 16 12 17 -3 4 -12 -9 -18 -10 -18 -2 0 6 5 11 10 11 6 0 9 3 9 8 -2
12 1 22 6 22 3 0 4 -3 3 -7z"/>
</g>
</svg>
