<svg version="1.1" id="Layer_1" xmlns="http://www.w3.org/2000/svg" xmlns:xlink="http://www.w3.org/1999/xlink" x="0px" y="0px"
	 width="100%" viewBox="0 0 3000 2530" enable-background="new 0 0 3000 2530" xml:space="preserve">
<path fill="#151515" opacity="1.000000" stroke="none" 
	d="
M1786.000000,2532.000000 
	C1190.666626,2532.000000 596.333313,2532.000000 2.000000,2532.000000 
	C2.000000,1688.666626 2.000000,845.333313 2.000000,2.000000 
	C1002.000000,2.000000 2002.000000,2.000000 3002.000000,2.000000 
	C3002.000000,845.333313 3002.000000,1688.666626 3002.000000,2532.000000 
	C2597.000000,2532.000000 2192.000000,2532.000000 1786.000000,2532.000000 
M1012.096619,573.022461 
	C1012.716919,573.360840 1013.337219,573.699280 1014.190735,575.278748 
	C1016.561646,577.576416 1018.932556,579.874084 1021.752930,583.215454 
	C1022.368042,583.609070 1022.983093,584.002686 1024.008057,585.687500 
	C1082.176025,650.683350 1131.950439,721.639648 1174.729370,797.590759 
	C1197.891846,838.714294 1218.321167,881.175110 1237.649902,925.549561 
	C1238.422607,927.037964 1239.195312,928.526306 1239.939453,931.337219 
	C1241.085205,933.680481 1242.230957,936.023804 1243.610474,940.106445 
	C1243.763550,942.350220 1243.916626,944.594055 1242.192627,946.671326 
	C1205.481079,945.213196 1168.957520,946.835571 1132.856323,954.072998 
	C1104.261230,959.805481 1076.991089,969.071655 1052.748047,985.869202 
	C1026.508423,1004.050049 1009.163818,1028.413452 1001.393738,1059.492065 
	C995.572449,1082.775757 995.394104,1106.240356 998.689697,1131.448730 
	C999.178833,1134.036987 999.684265,1136.622192 1000.154541,1139.213867 
	C1003.566101,1158.015625 1007.635864,1176.626709 1016.072266,1195.511108 
	C1028.786987,1229.177734 1044.604004,1261.394409 1061.891602,1292.900391 
	C1092.868042,1349.353394 1127.829468,1403.129761 1169.998169,1451.971436 
	C1190.284546,1475.467896 1212.100708,1497.399658 1237.682617,1515.248291 
	C1251.119507,1524.623047 1265.228516,1532.978882 1281.286987,1536.792114 
	C1314.119141,1544.588501 1343.298950,1538.842896 1367.396973,1511.506348 
	C1377.452515,1499.055420 1385.406982,1485.487183 1390.117188,1468.512817 
	C1392.191162,1459.887573 1394.315674,1451.273804 1396.298706,1442.627686 
	C1396.727051,1440.759888 1396.491211,1438.747925 1396.824829,1436.848633 
	C1398.058594,1429.827026 1399.402710,1422.824951 1401.320923,1414.139526 
	C1401.980957,1397.384521 1402.640991,1380.629395 1403.506836,1362.097900 
	C1401.505127,1337.270386 1400.617065,1312.292603 1397.290771,1287.643799 
	C1387.670044,1216.346069 1369.591797,1147.038452 1345.579102,1079.264526 
	C1344.179810,1075.315308 1341.766113,1071.725586 1340.361816,1066.926514 
	C1338.833008,1062.651123 1337.304077,1058.375732 1335.915771,1052.776123 
	C1334.839111,1050.382202 1333.762329,1047.988403 1332.560547,1044.076538 
	C1332.402344,1042.086548 1332.244141,1040.096436 1333.671997,1038.249023 
	C1337.842773,1039.032104 1342.024536,1039.761108 1346.182617,1040.606567 
	C1402.935181,1052.145630 1458.940430,1066.591797 1513.981567,1084.603271 
	C1559.207642,1099.402954 1603.801025,1115.874512 1646.311157,1139.012817 
	C1646.219360,1139.386230 1646.127441,1139.759766 1644.263184,1139.989258 
	C1638.975220,1139.773193 1633.687500,1139.381348 1628.399414,1139.376831 
	C1616.877563,1139.367188 1605.355347,1139.554932 1592.247070,1139.229980 
	C1578.142334,1140.269775 1564.037720,1141.309570 1548.261963,1142.178467 
	C1543.653076,1142.862061 1539.009277,1143.367065 1534.441162,1144.259033 
	C1510.882446,1148.859497 1488.806763,1156.704956 1471.297607,1174.083252 
	C1452.466797,1192.772949 1447.204956,1214.800781 1455.366333,1240.050415 
	C1459.404419,1252.543213 1465.875244,1263.752075 1473.471924,1274.352295 
	C1487.342041,1293.706421 1504.103027,1310.367920 1521.996094,1325.930542 
	C1564.150757,1362.594849 1610.571289,1393.264282 1658.926392,1420.860107 
	C1734.377808,1463.919922 1810.381836,1506.014160 1886.257812,1548.326904 
	C1968.553101,1594.219360 2050.807129,1640.172974 2129.850342,1691.587402 
	C2180.452881,1724.502563 2229.607422,1759.357300 2274.245361,1800.201904 
	C2289.277100,1813.956177 2303.400146,1828.544678 2314.447998,1845.811279 
	C2327.716797,1866.549072 2333.541016,1888.145752 2320.545166,1912.347534 
	C2315.447998,1918.758423 2310.350830,1925.169312 2304.038086,1931.954102 
	C2301.275146,1934.366211 2298.512451,1936.778442 2295.749756,1939.190552 
	C2296.102783,1939.619385 2296.455566,1940.048340 2296.808594,1940.477173 
	C2300.038086,1938.003906 2303.267822,1935.530518 2307.707764,1932.366943 
	C2314.004150,1927.013062 2320.977783,1922.255981 2324.454590,1912.685547 
	C2332.248779,1903.212891 2334.506348,1892.103271 2334.285400,1880.172607 
	C2334.025635,1866.145874 2329.335693,1853.413330 2323.027832,1841.192993 
	C2314.570801,1824.808960 2303.468750,1810.241577 2291.397705,1796.393799 
	C2269.893066,1771.723633 2246.240479,1749.226318 2221.664795,1727.666748 
	C2162.454346,1675.723022 2099.413574,1628.710449 2034.448120,1584.355591 
	C1953.577148,1529.141113 1871.576294,1475.580444 1790.765137,1420.280273 
	C1727.270630,1376.830322 1664.527344,1332.258789 1602.126465,1287.248169 
	C1583.026367,1273.470947 1566.043335,1256.727661 1548.358154,1241.041016 
	C1543.781006,1236.980957 1540.214722,1231.781372 1535.368652,1226.159302 
	C1541.108398,1224.487671 1545.153687,1222.659058 1549.347900,1222.204834 
	C1564.554443,1220.557617 1579.787354,1218.851562 1595.055176,1218.158936 
	C1610.009033,1217.480347 1625.017700,1218.010986 1641.550171,1218.634888 
	C1657.646240,1218.825684 1673.742432,1219.016357 1691.630249,1219.627686 
	C1705.918945,1218.032104 1720.207764,1216.436523 1736.085327,1214.830200 
	C1749.616211,1211.527100 1762.795288,1207.537354 1773.268677,1195.357788 
	C1779.884766,1186.853760 1782.267334,1177.149902 1782.455811,1166.463989 
	C1782.697754,1152.737915 1777.661377,1141.152588 1769.628174,1130.546021 
	C1757.997437,1115.189453 1742.969482,1103.631470 1727.095947,1093.109009 
	C1699.819824,1075.027832 1670.653442,1060.415771 1640.418701,1048.150024 
	C1528.200195,1002.624695 1412.965698,967.682190 1291.930664,949.535706 
	C1288.064819,942.196960 1284.198853,934.858215 1280.073120,926.247864 
	C1278.789185,924.045593 1277.505127,921.843262 1275.974976,918.405640 
	C1274.727905,917.456238 1273.480957,916.506897 1272.177002,914.047058 
	C1271.213623,911.270325 1270.601318,908.306702 1269.236206,905.743958 
	C1215.020996,803.964172 1149.402832,710.295715 1069.866211,626.623413 
	C1055.451050,611.458801 1040.071289,597.211182 1024.953369,581.992554 
	C1024.953369,581.992554 1024.389038,581.869141 1023.973572,580.648315 
	C1021.080261,578.157654 1018.187012,575.666992 1014.913635,572.355164 
	C1014.913635,572.355164 1014.128906,571.899353 1013.684021,570.627197 
	C1010.423279,568.454956 1007.162537,566.282715 1003.988831,563.321899 
	C1003.598450,563.250671 1003.208069,563.179443 1002.817688,563.108215 
	C1003.234375,563.396240 1003.651001,563.684265 1004.300354,565.225769 
	C1006.726257,567.496338 1009.152222,569.766907 1012.096619,573.022461 
M1000.984497,559.072693 
	C1000.984497,559.072693 1001.028015,558.998169 1000.984497,559.072693 
z"/>
<path fill="#FCFCFC" opacity="1.000000" stroke="none" 
	d="
M2321.707031,1911.668701 
	C2333.541016,1888.145752 2327.716797,1866.549072 2314.447998,1845.811279 
	C2303.400146,1828.544678 2289.277100,1813.956177 2274.245361,1800.201904 
	C2229.607422,1759.357300 2180.452881,1724.502563 2129.850342,1691.587402 
	C2050.807129,1640.172974 1968.553101,1594.219360 1886.257812,1548.326904 
	C1810.381836,1506.014160 1734.377808,1463.919922 1658.926392,1420.860107 
	C1610.571289,1393.264282 1564.150757,1362.594849 1521.996094,1325.930542 
	C1504.103027,1310.367920 1487.342041,1293.706421 1473.471924,1274.352295 
	C1465.875244,1263.752075 1459.404419,1252.543213 1455.366333,1240.050415 
	C1447.204956,1214.800781 1452.466797,1192.772949 1471.297607,1174.083252 
	C1488.806763,1156.704956 1510.882446,1148.859497 1534.441162,1144.259033 
	C1539.009277,1143.367065 1543.653076,1142.862061 1549.157227,1142.941040 
	C1552.869507,1146.880859 1555.408325,1150.377075 1558.581543,1153.146240 
	C1561.791016,1155.947388 1565.749023,1157.869019 1569.170776,1160.451904 
	C1587.590332,1174.355835 1606.188110,1188.042847 1624.179810,1202.483398 
	C1629.858398,1207.041382 1637.919556,1209.636963 1640.002319,1218.010864 
	C1625.017700,1218.010986 1610.009033,1217.480347 1595.055176,1218.158936 
	C1579.787354,1218.851562 1564.554443,1220.557617 1549.347900,1222.204834 
	C1545.153687,1222.659058 1541.108398,1224.487671 1535.368652,1226.159302 
	C1540.214722,1231.781372 1543.781006,1236.980957 1548.358154,1241.041016 
	C1566.043335,1256.727661 1583.026367,1273.470947 1602.126465,1287.248169 
	C1664.527344,1332.258789 1727.270630,1376.830322 1790.765137,1420.280273 
	C1871.576294,1475.580444 1953.577148,1529.141113 2034.448120,1584.355591 
	C2099.413574,1628.710449 2162.454346,1675.723022 2221.664795,1727.666748 
	C2246.240479,1749.226318 2269.893066,1771.723633 2291.397705,1796.393799 
	C2303.468750,1810.241577 2314.570801,1824.808960 2323.027832,1841.192993 
	C2329.335693,1853.413330 2334.025635,1866.145874 2334.285400,1880.172607 
	C2334.506348,1892.103271 2332.248779,1903.212891 2323.657959,1913.145508 
	C2322.476562,1912.959839 2322.091797,1912.314209 2321.707031,1911.668701 
z"/>
<path fill="#FDFDFD" opacity="1.000000" stroke="none" 
	d="
M998.875916,1129.846313 
	C995.394104,1106.240356 995.572449,1082.775757 1001.393738,1059.492065 
	C1009.163818,1028.413452 1026.508423,1004.050049 1052.748047,985.869202 
	C1076.991089,969.071655 1104.261230,959.805481 1132.856323,954.072998 
	C1168.957520,946.835571 1205.481079,945.213196 1243.813477,947.172485 
	C1252.356689,948.072388 1259.281250,948.441101 1266.201294,948.877502 
	C1275.048218,949.435303 1283.891846,950.047668 1292.736816,950.636597 
	C1412.965698,967.682190 1528.200195,1002.624695 1640.418701,1048.150024 
	C1670.653442,1060.415771 1699.819824,1075.027832 1727.095947,1093.109009 
	C1742.969482,1103.631470 1757.997437,1115.189453 1769.628174,1130.546021 
	C1777.661377,1141.152588 1782.697754,1152.737915 1782.455811,1166.463989 
	C1782.267334,1177.149902 1779.884766,1186.853760 1771.984375,1195.916748 
	C1767.387451,1195.032715 1763.980835,1193.771118 1760.777710,1192.115845 
	C1744.835571,1183.877563 1729.031982,1175.366455 1712.997925,1167.313354 
	C1706.571777,1164.085815 1699.604126,1161.956177 1693.015137,1159.029297 
	C1677.350220,1152.070801 1661.764160,1144.935059 1646.146118,1137.870972 
	C1603.801025,1115.874512 1559.207642,1099.402954 1513.981567,1084.603271 
	C1458.940430,1066.591797 1402.935181,1052.145630 1346.182617,1040.606567 
	C1342.024536,1039.761108 1337.842773,1039.032104 1332.208618,1037.801514 
	C1312.705566,1032.151733 1294.321167,1029.134766 1274.670044,1028.532227 
	C1240.961792,1024.880981 1208.112061,1022.720276 1175.073120,1025.918335 
	C1148.636597,1028.477295 1123.505859,1034.949463 1099.772949,1048.355225 
	C1084.699585,1052.844482 1071.542236,1060.084106 1059.630005,1069.115356 
	C1048.840576,1077.295288 1039.126465,1086.893311 1028.322754,1096.016113 
	C1018.400208,1105.748291 1009.854675,1115.909668 1003.161255,1128.073730 
	C1001.421265,1128.823975 1000.148621,1129.335083 998.875916,1129.846313 
z"/>
<path fill="#FDFDFD" opacity="1.000000" stroke="none" 
	d="
M1366.163696,1512.005127 
	C1343.298950,1538.842896 1314.119141,1544.588501 1281.286987,1536.792114 
	C1265.228516,1532.978882 1251.119507,1524.623047 1237.682617,1515.248291 
	C1212.100708,1497.399658 1190.284546,1475.467896 1169.998169,1451.971436 
	C1127.829468,1403.129761 1092.868042,1349.353394 1061.891602,1292.900391 
	C1044.604004,1261.394409 1028.786987,1229.177734 1016.772644,1194.390869 
	C1019.048157,1192.825806 1020.609985,1192.050171 1022.200378,1191.986694 
	C1041.285156,1191.222534 1060.378540,1190.660400 1079.459473,1189.817871 
	C1085.013550,1189.572754 1090.536011,1188.606689 1096.547607,1188.484619 
	C1099.100952,1193.526367 1101.146362,1198.070190 1103.263306,1202.580444 
	C1127.807251,1254.875610 1159.453003,1302.888672 1192.776489,1349.817627 
	C1216.052490,1382.597046 1240.031616,1414.892822 1268.146118,1444.454102 
	C1295.329468,1475.409180 1326.741577,1499.583984 1366.163696,1512.005127 
z"/>
<path fill="#FCFCFC" opacity="1.000000" stroke="none" 
	d="
M1339.824463,1067.968506 
	C1341.766113,1071.725586 1344.179810,1075.315308 1345.579102,1079.264526 
	C1369.591797,1147.038452 1387.670044,1216.346069 1397.290771,1287.643799 
	C1400.617065,1312.292603 1401.505127,1337.270386 1402.681885,1362.986572 
	C1399.177002,1362.899536 1395.969482,1362.555054 1393.912476,1360.834839 
	C1386.540771,1354.669434 1379.588867,1348.004517 1372.422363,1341.590942 
	C1360.070312,1330.536621 1347.729736,1319.467651 1335.234375,1308.577148 
	C1333.627075,1307.176392 1331.124634,1306.802490 1328.818848,1305.046143 
	C1326.470459,1254.836426 1320.533325,1205.982910 1310.230103,1157.733765 
	C1304.262939,1129.790039 1297.215942,1102.077026 1291.609131,1074.226562 
	C1296.830322,1073.644409 1301.098877,1073.108765 1305.363647,1072.544800 
	C1316.851440,1071.025879 1328.337646,1069.494751 1339.824463,1067.968506 
z"/>
<path fill="#FCFCFC" opacity="1.000000" stroke="none" 
	d="
M1237.424194,924.299500 
	C1218.321167,881.175110 1197.891846,838.714294 1174.729370,797.590759 
	C1131.950439,721.639648 1082.176025,650.683350 1024.201172,584.588867 
	C1024.641724,583.173645 1024.889282,582.856995 1025.136841,582.540283 
	C1040.071289,597.211182 1055.451050,611.458801 1069.866211,626.623413 
	C1149.402832,710.295715 1215.020996,803.964172 1269.236206,905.743958 
	C1270.601318,908.306702 1271.213623,911.270325 1272.024780,915.570251 
	C1270.961182,917.937988 1270.145020,919.371277 1269.123779,919.536377 
	C1258.576294,921.241638 1247.995605,922.742004 1237.424194,924.299500 
z"/>
<path fill="#DADADA" opacity="1.000000" stroke="none" 
	d="
M1096.072998,1187.970947 
	C1090.536011,1188.606689 1085.013550,1189.572754 1079.459473,1189.817871 
	C1060.378540,1190.660400 1041.285156,1191.222534 1022.200378,1191.986694 
	C1020.609985,1192.050171 1019.048157,1192.825806 1016.718262,1193.640259 
	C1007.635864,1176.626709 1003.566101,1158.015625 1000.154541,1139.213867 
	C999.684265,1136.622192 999.178833,1134.036987 998.782837,1130.647461 
	C1000.148621,1129.335083 1001.421265,1128.823975 1003.822876,1128.645996 
	C1008.544312,1129.334229 1012.145996,1130.068115 1015.727844,1129.981445 
	C1036.248169,1129.484985 1056.763672,1128.793823 1077.514893,1128.934937 
	C1080.306641,1139.237061 1082.541626,1148.874878 1085.510132,1158.281250 
	C1088.669189,1168.292114 1092.522583,1178.083740 1096.072998,1187.970947 
z"/>
<path fill="#939192" opacity="1.000000" stroke="none" 
	d="
M1366.780273,1511.755737 
	C1326.741577,1499.583984 1295.329468,1475.409180 1268.851562,1444.274658 
	C1272.088257,1445.088379 1274.460815,1446.903320 1276.999756,1448.443848 
	C1282.942627,1452.049438 1288.672241,1456.225098 1295.027222,1458.879395 
	C1303.679199,1462.493286 1307.899780,1460.563843 1311.835449,1452.123657 
	C1314.338989,1446.754395 1316.255371,1441.067261 1317.953491,1435.378906 
	C1319.658813,1429.665649 1320.766968,1423.774170 1322.809570,1418.082275 
	C1324.371338,1418.631592 1325.413330,1418.885742 1326.127075,1419.513184 
	C1343.741211,1434.990967 1361.398804,1450.421265 1378.835938,1466.096680 
	C1382.078491,1469.011719 1385.274536,1470.561035 1389.531372,1469.882202 
	C1385.406982,1485.487183 1377.452515,1499.055420 1366.780273,1511.755737 
z"/>
<path fill="#B4B2B3" opacity="1.000000" stroke="none" 
	d="
M1389.824219,1469.197510 
	C1385.274536,1470.561035 1382.078491,1469.011719 1378.835938,1466.096680 
	C1361.398804,1450.421265 1343.741211,1434.990967 1326.127075,1419.513184 
	C1325.413330,1418.885742 1324.371338,1418.631592 1322.781250,1417.237793 
	C1322.817627,1410.022217 1323.622437,1403.779541 1324.278564,1397.521362 
	C1325.590088,1385.010986 1326.820068,1372.492065 1328.769043,1360.112061 
	C1337.532959,1366.473022 1345.879517,1372.384644 1353.629272,1378.995972 
	C1366.223389,1389.739746 1378.296875,1401.093994 1390.903809,1411.822144 
	C1393.455811,1413.993652 1397.401978,1414.526978 1400.705322,1415.815430 
	C1399.402710,1422.824951 1398.058594,1429.827026 1396.824829,1436.848633 
	C1396.491211,1438.747925 1396.727051,1440.759888 1396.298706,1442.627686 
	C1394.315674,1451.273804 1392.191162,1459.887573 1389.824219,1469.197510 
z"/>
<path fill="#DADADA" opacity="1.000000" stroke="none" 
	d="
M1401.013184,1414.977539 
	C1397.401978,1414.526978 1393.455811,1413.993652 1390.903809,1411.822144 
	C1378.296875,1401.093994 1366.223389,1389.739746 1353.629272,1378.995972 
	C1345.879517,1372.384644 1337.532959,1366.473022 1328.676514,1359.179932 
	C1328.278198,1340.726074 1328.657593,1323.339355 1329.036987,1305.952759 
	C1331.124634,1306.802490 1333.627075,1307.176392 1335.234375,1308.577148 
	C1347.729736,1319.467651 1360.070312,1330.536621 1372.422363,1341.590942 
	C1379.588867,1348.004517 1386.540771,1354.669434 1393.912476,1360.834839 
	C1395.969482,1362.555054 1399.177002,1362.899536 1402.578857,1363.874756 
	C1402.640991,1380.629395 1401.980957,1397.384521 1401.013184,1414.977539 
z"/>
<path fill="#B4B2B3" opacity="1.000000" stroke="none" 
	d="
M1734.496460,1214.841064 
	C1720.207764,1216.436523 1705.918945,1218.032104 1690.656860,1218.760498 
	C1688.913330,1216.540405 1688.456421,1214.790771 1687.324097,1213.895996 
	C1676.458740,1205.311646 1665.519043,1196.819702 1654.523804,1188.401733 
	C1636.202393,1174.374878 1617.782471,1160.475830 1599.523560,1146.368530 
	C1597.254272,1144.615234 1595.712280,1141.920532 1593.833374,1139.661987 
	C1605.355347,1139.554932 1616.877563,1139.367188 1628.399414,1139.376831 
	C1633.687500,1139.381348 1638.975220,1139.773193 1645.427979,1140.661499 
	C1649.625122,1144.414429 1652.339355,1147.912231 1655.742188,1150.507080 
	C1676.044678,1165.989380 1696.796143,1180.899780 1716.747925,1196.815430 
	C1723.230957,1201.986938 1732.310913,1205.219116 1734.496460,1214.841064 
z"/>
<path fill="#DADADA" opacity="1.000000" stroke="none" 
	d="
M1593.040283,1139.446045 
	C1595.712280,1141.920532 1597.254272,1144.615234 1599.523560,1146.368530 
	C1617.782471,1160.475830 1636.202393,1174.374878 1654.523804,1188.401733 
	C1665.519043,1196.819702 1676.458740,1205.311646 1687.324097,1213.895996 
	C1688.456421,1214.790771 1688.913330,1216.540405 1689.760986,1218.550293 
	C1673.742432,1219.016357 1657.646240,1218.825684 1640.776245,1218.322876 
	C1637.919556,1209.636963 1629.858398,1207.041382 1624.179810,1202.483398 
	C1606.188110,1188.042847 1587.590332,1174.355835 1569.170776,1160.451904 
	C1565.749023,1157.869019 1561.791016,1155.947388 1558.581543,1153.146240 
	C1555.408325,1150.377075 1552.869507,1146.880859 1549.992676,1143.026489 
	C1564.037720,1141.309570 1578.142334,1140.269775 1593.040283,1139.446045 
z"/>
<path fill="#939192" opacity="1.000000" stroke="none" 
	d="
M1735.290894,1214.835571 
	C1732.310913,1205.219116 1723.230957,1201.986938 1716.747925,1196.815430 
	C1696.796143,1180.899780 1676.044678,1165.989380 1655.742188,1150.507080 
	C1652.339355,1147.912231 1649.625122,1144.414429 1646.314087,1140.733398 
	C1646.127441,1139.759766 1646.219360,1139.386230 1646.228638,1138.441895 
	C1661.764160,1144.935059 1677.350220,1152.070801 1693.015137,1159.029297 
	C1699.604126,1161.956177 1706.571777,1164.085815 1712.997925,1167.313354 
	C1729.031982,1175.366455 1744.835571,1183.877563 1760.777710,1192.115845 
	C1763.980835,1193.771118 1767.387451,1195.032715 1771.478271,1196.384399 
	C1762.795288,1207.537354 1749.616211,1211.527100 1735.290894,1214.835571 
z"/>
<path fill="#939192" opacity="1.000000" stroke="none" 
	d="
M1275.538330,1028.641479 
	C1294.321167,1029.134766 1312.705566,1032.151733 1331.415527,1037.730225 
	C1332.244141,1040.096436 1332.402344,1042.086548 1331.691406,1044.923950 
	C1325.966675,1046.355347 1321.102905,1046.879028 1316.257324,1047.535522 
	C1305.588745,1048.981201 1294.929199,1050.493774 1283.833374,1051.394043 
	C1280.780029,1043.419800 1278.159180,1036.030640 1275.538330,1028.641479 
z"/>
<path fill="#DADADA" opacity="1.000000" stroke="none" 
	d="
M1340.093140,1067.447510 
	C1328.337646,1069.494751 1316.851440,1071.025879 1305.363647,1072.544800 
	C1301.098877,1073.108765 1296.830322,1073.644409 1291.260986,1073.673584 
	C1288.864868,1068.803955 1287.771362,1064.453979 1287.530273,1060.149414 
	C1293.549194,1059.631836 1298.728394,1059.164307 1303.879639,1058.485352 
	C1314.519409,1057.083252 1325.144165,1055.568604 1335.775146,1054.100342 
	C1337.304077,1058.375732 1338.833008,1062.651123 1340.093140,1067.447510 
z"/>
<path fill="#939192" opacity="1.000000" stroke="none" 
	d="
M1292.333740,950.086182 
	C1283.891846,950.047668 1275.048218,949.435303 1266.201294,948.877502 
	C1259.281250,948.441101 1252.356689,948.072388 1244.751953,947.255737 
	C1243.916626,944.594055 1243.763550,942.350220 1244.400635,939.197571 
	C1254.973511,936.717468 1264.822510,935.450806 1274.489990,933.349365 
	C1276.753174,932.857422 1278.401733,929.538086 1280.333008,927.519531 
	C1284.198853,934.858215 1288.064819,942.196960 1292.333740,950.086182 
z"/>
<path fill="#B4B2B3" opacity="1.000000" stroke="none" 
	d="
M1335.845459,1053.438232 
	C1325.144165,1055.568604 1314.519409,1057.083252 1303.879639,1058.485352 
	C1298.728394,1059.164307 1293.549194,1059.631836 1287.156250,1059.538208 
	C1285.375244,1056.580688 1284.820679,1054.279785 1284.265991,1051.979004 
	C1294.929199,1050.493774 1305.588745,1048.981201 1316.257324,1047.535522 
	C1321.102905,1046.879028 1325.966675,1046.355347 1331.753906,1045.682861 
	C1333.762329,1047.988403 1334.839111,1050.382202 1335.845459,1053.438232 
z"/>
<path fill="#B4B2B3" opacity="1.000000" stroke="none" 
	d="
M1280.203125,926.883667 
	C1278.401733,929.538086 1276.753174,932.857422 1274.489990,933.349365 
	C1264.822510,935.450806 1254.973511,936.717468 1244.283691,938.327881 
	C1242.230957,936.023804 1241.085205,933.680481 1240.822266,930.719849 
	C1251.327271,928.603027 1261.013184,927.403870 1270.523682,925.379944 
	C1272.729980,924.910278 1274.337891,921.628601 1276.221191,919.640991 
	C1277.505127,921.843262 1278.789185,924.045593 1280.203125,926.883667 
z"/>
<path fill="#DADADA" opacity="1.000000" stroke="none" 
	d="
M1276.098145,919.023315 
	C1274.337891,921.628601 1272.729980,924.910278 1270.523682,925.379944 
	C1261.013184,927.403870 1251.327271,928.603027 1240.836670,930.058594 
	C1239.195312,928.526306 1238.422607,927.037964 1237.537109,924.924561 
	C1247.995605,922.742004 1258.576294,921.241638 1269.123779,919.536377 
	C1270.145020,919.371277 1270.961182,917.937988 1272.053223,916.325500 
	C1273.480957,916.506897 1274.727905,917.456238 1276.098145,919.023315 
z"/>
<path fill="#B4B2B3" opacity="1.000000" stroke="none" 
	d="
M2321.125977,1912.008057 
	C2322.091797,1912.314209 2322.476562,1912.959839 2323.396484,1913.780884 
	C2320.977783,1922.255981 2314.004150,1927.013062 2306.860107,1932.285156 
	C2306.012451,1932.203491 2305.253662,1931.580200 2305.253662,1931.580200 
	C2310.350830,1925.169312 2315.447998,1918.758423 2321.125977,1912.008057 
z"/>
<path fill="#939192" opacity="1.000000" stroke="none" 
	d="
M2306.254883,1932.630371 
	C2303.267822,1935.530518 2300.038086,1938.003906 2296.808594,1940.477173 
	C2296.455566,1940.048340 2296.102783,1939.619385 2295.749756,1939.190552 
	C2298.512451,1936.778442 2301.275146,1934.366211 2304.645996,1931.767090 
	C2305.253662,1931.580200 2306.012451,1932.203491 2306.254883,1932.630371 
z"/>
<path fill="#DADADA" opacity="1.000000" stroke="none" 
	d="
M1021.303467,582.171753 
	C1018.932556,579.874084 1016.561646,577.576416 1014.409485,574.444946 
	C1014.628235,573.611145 1015.293701,573.176331 1015.293701,573.176331 
	C1018.187012,575.666992 1021.080261,578.157654 1023.412842,581.363770 
	C1022.335876,582.110046 1021.819641,582.140869 1021.303467,582.171753 
z"/>
<path fill="#939192" opacity="1.000000" stroke="none" 
	d="
M1003.901794,564.110535 
	C1007.162537,566.282715 1010.423279,568.454956 1013.273010,571.376221 
	C1012.434082,572.096008 1012.006104,572.066711 1011.578186,572.037476 
	C1009.152222,569.766907 1006.726257,567.496338 1004.139893,564.630432 
	C1003.979492,564.035095 1003.901794,564.110535 1003.901794,564.110535 
z"/>
<path fill="#FCFCFC" opacity="1.000000" stroke="none" 
	d="
M1021.528198,582.693604 
	C1021.819641,582.140869 1022.335876,582.110046 1023.620544,581.974243 
	C1024.389038,581.869141 1024.953369,581.992554 1025.045166,582.266418 
	C1024.889282,582.856995 1024.641724,583.173645 1023.996216,583.943298 
	C1022.983093,584.002686 1022.368042,583.609070 1021.528198,582.693604 
z"/>
<path fill="#DADADA" opacity="1.000000" stroke="none" 
	d="
M1011.837402,572.529968 
	C1012.006104,572.066711 1012.434082,572.096008 1013.495483,572.012329 
	C1014.128906,571.899353 1014.913635,572.355164 1015.103638,572.765747 
	C1015.293701,573.176331 1014.628235,573.611145 1014.292847,573.824463 
	C1013.337219,573.699280 1012.716919,573.360840 1011.837402,572.529968 
z"/>
<path fill="#939192" opacity="1.000000" stroke="none" 
	d="
M1004.023560,564.003662 
	C1003.651001,563.684265 1003.234375,563.396240 1002.817688,563.108215 
	C1003.208069,563.179443 1003.598450,563.250671 1003.945312,563.716187 
	C1003.901794,564.110535 1003.979492,564.035095 1004.023560,564.003662 
z"/>
<path fill="#939192" opacity="1.000000" stroke="none" 
	d="
M1001.006226,559.035400 
	C1001.028015,558.998169 1000.984497,559.072693 1001.006226,559.035400 
z"/>
<path fill="#151515" opacity="1.000000" stroke="none" 
	d="
M1283.833374,1051.394043 
	C1284.820679,1054.279785 1285.375244,1056.580688 1286.303833,1059.492676 
	C1287.771362,1064.453979 1288.864868,1068.803955 1290.306641,1073.707031 
	C1297.215942,1102.077026 1304.262939,1129.790039 1310.230103,1157.733765 
	C1320.533325,1205.982910 1326.470459,1254.836426 1328.818848,1305.046143 
	C1328.657593,1323.339355 1328.278198,1340.726074 1327.991211,1359.044678 
	C1326.820068,1372.492065 1325.590088,1385.010986 1324.278564,1397.521362 
	C1323.622437,1403.779541 1322.817627,1410.022217 1322.108521,1417.116333 
	C1320.766968,1423.774170 1319.658813,1429.665649 1317.953491,1435.378906 
	C1316.255371,1441.067261 1314.338989,1446.754395 1311.835449,1452.123657 
	C1307.899780,1460.563843 1303.679199,1462.493286 1295.027222,1458.879395 
	C1288.672241,1456.225098 1282.942627,1452.049438 1276.999756,1448.443848 
	C1274.460815,1446.903320 1272.088257,1445.088379 1268.934814,1443.577515 
	C1240.031616,1414.892822 1216.052490,1382.597046 1192.776489,1349.817627 
	C1159.453003,1302.888672 1127.807251,1254.875610 1103.263306,1202.580444 
	C1101.146362,1198.070190 1099.100952,1193.526367 1096.547607,1188.484619 
	C1092.522583,1178.083740 1088.669189,1168.292114 1085.510132,1158.281250 
	C1082.541626,1148.874878 1080.306641,1139.237061 1077.645996,1128.105225 
	C1076.962280,1116.358521 1076.381348,1106.207764 1076.066528,1095.318726 
	C1078.981201,1077.449707 1085.931519,1062.617676 1099.377075,1051.207275 
	C1100.021729,1050.660156 1100.143066,1049.496582 1100.508057,1048.619995 
	C1123.505859,1034.949463 1148.636597,1028.477295 1175.073120,1025.918335 
	C1208.112061,1022.720276 1240.961792,1024.880981 1274.670044,1028.532227 
	C1278.159180,1036.030640 1280.780029,1043.419800 1283.833374,1051.394043 
z"/>
<path fill="#B4B2B3" opacity="1.000000" stroke="none" 
	d="
M1075.800537,1096.056885 
	C1076.381348,1106.207764 1076.962280,1116.358521 1077.411987,1127.339111 
	C1056.763672,1128.793823 1036.248169,1129.484985 1015.727844,1129.981445 
	C1012.145996,1130.068115 1008.544312,1129.334229 1004.290161,1128.406982 
	C1009.854675,1115.909668 1018.400208,1105.748291 1029.196045,1096.244141 
	C1035.229370,1096.802612 1039.786133,1097.775391 1044.316284,1097.664307 
	C1054.817871,1097.406860 1065.306641,1096.625732 1075.800537,1096.056885 
z"/>
<path fill="#939192" opacity="1.000000" stroke="none" 
	d="
M1076.066528,1095.318726 
	C1065.306641,1096.625732 1054.817871,1097.406860 1044.316284,1097.664307 
	C1039.786133,1097.775391 1035.229370,1096.802612 1029.811401,1096.094116 
	C1039.126465,1086.893311 1048.840576,1077.295288 1059.630005,1069.115356 
	C1071.542236,1060.084106 1084.699585,1052.844482 1099.772949,1048.355225 
	C1100.143066,1049.496582 1100.021729,1050.660156 1099.377075,1051.207275 
	C1085.931519,1062.617676 1078.981201,1077.449707 1076.066528,1095.318726 
z"/>
</svg>